<?xml version="1.0" encoding="utf-8"?>
<!-- Generator: Adobe Illustrator 12.0.1, SVG Export Plug-In . SVG Version: 6.00 Build 51448)  -->
<!DOCTYPE svg PUBLIC "-//W3C//DTD SVG 1.1//EN" "http://www.w3.org/Graphics/SVG/1.1/DTD/svg11.dtd" [
	<!ENTITY ns_svg "http://www.w3.org/2000/svg">
	<!ENTITY ns_xlink "http://www.w3.org/1999/xlink">
]>
<svg  version="1.1" id="Layer_1" xmlns="&ns_svg;" xmlns:xlink="&ns_xlink;" width="548.476" height="308.597"
	 viewBox="0 0 548.476 308.597" overflow="visible" enable-background="new 0 0 548.476 308.597" xml:space="preserve">
<g>
	<path fill-rule="evenodd" clip-rule="evenodd" d="M130.091,27.358c-0.598-8.87,4.896-11.647,9.453-15.361
		C138.225,18.949,134.432,23.427,130.091,27.358z"/>
	<path fill-rule="evenodd" clip-rule="evenodd" d="M112.367,19.086C108.246,13.552,118.329,14.328,112.367,19.086L112.367,19.086z"
		/>
	<path fill-rule="evenodd" clip-rule="evenodd" d="M401.875,39.175c0,1.576,0,3.151,0,4.727
		C398.008,44.151,397.21,38.358,401.875,39.175z"/>
	<path fill-rule="evenodd" clip-rule="evenodd" d="M430.236,54.537c-1.396,1.755-1.023,5.279-4.728,4.727
		C424.96,55.563,426.537,53.988,430.236,54.537z"/>
	<path fill-rule="evenodd" clip-rule="evenodd" d="M59.191,67.535c2.372-0.402,3.697,0.242,3.545,2.363c-1.182,0-2.363,0-3.545,0
		C59.191,69.11,59.191,68.322,59.191,67.535z"/>
	<path fill-rule="evenodd" clip-rule="evenodd" d="M130.091,81.715c0.434,3.585-3.849,2.453-5.908,3.545
		C125.263,83.188,126.38,81.154,130.091,81.715z"/>
	<path fill-rule="evenodd" clip-rule="evenodd" d="M312.069,82.896c2.071,1.08,4.104,2.197,3.544,5.909
		C311.922,89.346,311.837,86.28,312.069,82.896z"/>
	<path fill-rule="evenodd" clip-rule="evenodd" d="M414.874,97.077c1.908-0.333,2.033,1.117,3.545,1.182
		c-3.071,4.314,2.359,5.306,0,8.272C415.071,103.824,413.401,102.064,414.874,97.077z"/>
	<path fill-rule="evenodd" clip-rule="evenodd" d="M418.419,107.712c0.334,1.908-1.117,2.034-1.182,3.544
		c0.866,1.103,2.148,1.79,3.545,2.363c-2.53,3.212-7.05-1.537-7.091-4.727C414.744,107.976,416.36,107.623,418.419,107.712z"/>
	<path fill-rule="evenodd" clip-rule="evenodd" d="M413.691,114.802c0.788,0,1.576,0,2.364,0c0,1.575,0,3.151,0,4.727
		c-0.788,0-1.576,0-2.364,0C413.691,117.953,413.691,116.377,413.691,114.802z"/>
	<path fill-rule="evenodd" clip-rule="evenodd" d="M421.963,120.71c-0.483,2.847,2.158,2.569,1.183,5.909
		c-3.555,1.191-2.094-2.633-2.363-4.727c-3.332,0.213-1.475,5.616-5.908,4.727C415.175,122.586,417.401,120.48,421.963,120.71z"/>
	<path fill-rule="evenodd" clip-rule="evenodd" d="M414.874,140.798c1.379,1.772,3.412,2.89,3.545,5.909
		C414.729,147.248,414.642,144.182,414.874,140.798z"/>
	<path fill-rule="evenodd" clip-rule="evenodd" d="M413.691,151.433C419.107,152.222,412.742,158.587,413.691,151.433
		L413.691,151.433z"/>
	<path fill-rule="evenodd" clip-rule="evenodd" d="M407.784,159.705c2.875,0.741,0.626,5.971-2.363,4.728
		C404.56,161.207,407.768,162.054,407.784,159.705z"/>
	<path fill-rule="evenodd" clip-rule="evenodd" d="M408.965,165.614c1.908-0.334,2.036,1.116,3.546,1.18
		c-0.227,0.958-1.186,1.179-1.183,2.364c-0.786,0-1.575,0-2.363,0C408.965,167.977,408.965,166.796,408.965,165.614z"/>
	<path fill-rule="evenodd" clip-rule="evenodd" d="M403.058,170.34c3.96,3.279-3.06,5.528-3.546,8.272
		C396.235,176.018,403.255,173.769,403.058,170.34z"/>
	<path fill-rule="evenodd" clip-rule="evenodd" d="M393.604,178.612c2.078,0.284,2.693,2.032,2.363,4.727
		c-2.47,0.5-3.129-0.81-4.727-1.182C391.657,180.605,393.32,180.299,393.604,178.612z"/>
	<path fill-rule="evenodd" clip-rule="evenodd" d="M391.24,188.065c-0.179,2.939-4.001,0.346-4.727,0
		C387.318,184.373,390.112,186.078,391.24,188.065z"/>
	<path fill-rule="evenodd" clip-rule="evenodd" d="M385.332,190.429c1.354,3.716-1.854,2.871-2.363,4.727
		C380.463,194.783,382.713,189.554,385.332,190.429z"/>
	<path fill-rule="evenodd" clip-rule="evenodd" d="M262.438,195.155c3.007,0.145,4.583,1.721,4.727,4.728c-1.969,0-3.939,0-5.908,0
		C261.107,197.762,262.704,197.389,262.438,195.155z"/>
	<path fill-rule="evenodd" clip-rule="evenodd" d="M269.529,197.519c0.787,0,1.575,0,2.363,0c0,0.788,0,1.575,0,2.364
		c-0.789,0-1.576,0-2.363,0C269.529,199.094,269.529,198.307,269.529,197.519z"/>
	<path fill-rule="evenodd" clip-rule="evenodd" d="M290.798,199.883c0.788,0,1.577,0,2.364,0c0.553,2.521-1.688,2.25-3.545,2.363
		C289.841,201.288,290.803,201.066,290.798,199.883z"/>
	<path fill-rule="evenodd" clip-rule="evenodd" d="M323.885,199.883c0.788,0,1.577,0,2.363,0c0.552,2.521-1.687,2.25-3.544,2.363
		C322.928,201.288,323.89,201.066,323.885,199.883z"/>
	<path fill-rule="evenodd" clip-rule="evenodd" d="M258.894,202.246c1.633-3.42,4.181,1.984,3.544,4.726
		C259.176,207.478,261.33,202.566,258.894,202.246z"/>
	<path fill-rule="evenodd" clip-rule="evenodd" d="M288.435,202.246c0.185,3.31-3.34,3.854-4.727,2.363
		C283.992,202.529,285.741,201.915,288.435,202.246z"/>
	<path fill-rule="evenodd" clip-rule="evenodd" d="M319.159,202.246c3.007,0.144,4.582,1.72,4.726,4.726
		C322.5,205.207,318.975,205.579,319.159,202.246z"/>
	<path fill-rule="evenodd" clip-rule="evenodd" d="M355.79,206.972c-4.409-2.567-5.798-1.129-10.635-2.362
		C348.26,202.125,355.976,200.703,355.79,206.972z"/>
	<path fill-rule="evenodd" clip-rule="evenodd" d="M310.887,204.609c0.18,3.441-4.791,3.59-5.908,2.362
		C305.152,204.389,307.956,204.436,310.887,204.609z"/>
	<path fill-rule="evenodd" clip-rule="evenodd" d="M316.796,204.609c2.874,0.741,0.625,5.97-2.363,4.726
		C313.078,205.618,316.288,206.464,316.796,204.609z"/>
	<path fill-rule="evenodd" clip-rule="evenodd" d="M287.254,206.972C280.993,210.591,275.903,205.5,287.254,206.972L287.254,206.972
		z"/>
	<path fill-rule="evenodd" clip-rule="evenodd" d="M278.982,230.605c0.859,3.225-2.349,2.379-2.363,4.727
		C273.743,234.591,275.993,229.361,278.982,230.605z"/>
	<path fill-rule="evenodd" clip-rule="evenodd" d="M354.609,262.511c3.445-1.738,3.445,5.281,0,3.545
		C354.609,264.874,354.609,263.692,354.609,262.511z"/>
	<path fill-rule="evenodd" clip-rule="evenodd" d="M334.521,300.323c-0.223,4.505-1.678,7.777-5.909,8.273
		C327.585,302.842,330.621,301.153,334.521,300.323z"/>
	<path fill-rule="evenodd" clip-rule="evenodd" d="M462.14,13.177c-8.863,6.499-17.649,13.074-27.177,18.908
		c0.158-4.569,4.791-4.662,5.907-8.272c-3.551-4.233-6.234,2.352-7.09,4.727c-6.848,4.575-12.36,10.484-16.543,17.725
		c8.693-1.941,8.45-12.821,17.726-14.18c1.13,2.2-3.54,3.949,0,4.726c-2.598,4.1-8.509,4.884-11.817,8.272
		c1.081,3.966,2.196,0.585,5.908,1.182c-0.175,5.733-3.713,8.104-8.271,9.453c-1.444,5.402,4.91,6.559,1.181,10.635
		c-3.836-3.14-1.724-5.202-8.271-4.727c0.521,3.417,2.492,5.387,5.908,5.909c0.026,2.783-2.035,3.479-1.181,7.09
		c-0.846,3.208,5.571-0.846,4.727,2.363c2.392-1.94,4.713-3.951,4.727-8.271c-2.962-0.204-2.869,2.646-4.727,3.544
		c-1.965-5.148,5.186-11.333,9.454-14.18c-1.3-5.041-4.377-9.235,2.363-10.635c0.879-3.638-3.244-2.271-2.363-5.909
		c5.404-0.639,3.043-6.287,5.907-9.453c6.268-6.929,18.56-8.895,24.815-16.544c-2.813,9.133-13.29,9.477-18.907,16.544
		c-2.966,3.73-2.739,9.352-4.727,14.18c-0.634,1.541-2.887,2.047-3.545,3.545c-3.737,8.509-2.789,18.22-8.271,24.815
		c0.686,8.131-0.939,15.909,0,22.452c0.547,3.803,4.424,10.278,4.728,14.18c0.384,4.964-1.053,10.017,4.727,11.817
		c11.159,3.477,29.475-12.056,30.723-28.36c0.376-4.909,0.188-15.16,5.908-17.725c3.128,5.919-4.826,10.902-2.363,20.088
		c13.921-2.23,13.903-18.396,23.633-24.815c1.138,5.865-3.15,6.303-3.545,10.635c2.319,2.24,11.751,1.567,14.181,0
		c1.711-4.467-3.246-2.268-2.363-5.908c5.441-0.468,4.538-7.279,4.727-12.998c5.817-6.786,10.044-15.167,18.906-18.907
		c3.852,15.69-5.686,27.977-16.542,35.45c21.741,7.949,18.662-19.146,36.631-18.907c2.965,11.006-8.336,17.54-16.543,21.27
		c12.103,4.268,18.564,14.214,17.725,28.36c-7.057-1.608-10.793-6.539-16.544-9.453c-0.698,5.703,0.912,11.25,0,21.27
		c-10.171-5.978-17.863-14.435-16.544-31.905c-1.026-1.729-1.767-3.745-4.725-3.544c-3.335-0.184-2.963,3.34-4.728,4.726
		c6.328,13.483,8.857,22.764,2.363,35.451c-5.984-2.681-6.645-10.688-9.453-16.544c-6.929,2.919-8.999,10.697-18.907,10.635
		c1.103-18.986,17.659-22.519,25.997-34.268c-4.108-3.651-10.688,5.085-14.181-1.182c-5.991,5.431-10.25,12.596-18.905,15.361
		c-1.914,10.692-8.501,16.71-15.363,22.452c3.396,4.875,12.232,4.311,17.725,7.089c7.904-2.339,12.439-8.043,20.089-10.635
		c1.735,5.992-8.796,9.089-12.998,12.998c1.715,7.345,15.251,2.869,20.088,7.09c10.373-9.976,21.19-12.388,38.996-14.18
		c-4.552,11.575-17.063,20.238-33.087,16.543c-1.027,4.572,2.887,4.203,3.545,7.09c8.499-1.802,10.269,3.125,16.544,3.545
		c4.38,8.391,10.92,17.356,10.635,28.361c-11.456-7.451-26.913-10.901-27.179-29.542c-1.786-2.939-4.051-5.402-8.271-5.908
		c6.848,13.612,5.74,31.646-5.909,40.177c-2.103-9.146-5.711-15.37-7.089-22.451c2.649-7.986,8.547-12.724,11.815-20.089
		c-5.808-4.04-19.911,0.217-23.633-5.909c-5.761,6.45-5.46,18.96-11.816,24.815c3.366,5.056,11.249,4.072,15.361,8.271
		c2.26,2.306,0.808,7.486,4.727,8.272c-3.52,6.35,2.028,11.343-3.544,17.725c-11.361-3.883-11.767-13.935-16.544-22.451
		c-4.386,6.738,2.372,13.272,2.363,20.088c-0.01,8.228-5.633,13.647-5.908,20.089c-6.365,0.479-4.953-3.303-10.635-1.182
		c-2.779-12.266,3.336-22.59,4.726-34.269c-6.689,2.584-3.941,10.066-5.908,15.361c-3.687,9.931-12.064,16.223-17.725,23.634
		c-5.962-4.112-4.697-14.421-3.544-20.089c1.807-8.877,9.063-14.374,11.815-20.088c5.736-0.568,6.273-6.332,10.636-8.272
		c-5.281-2.487-8.513,7.217-16.544,5.909c-4.439,4.598-10.501,2.354-17.725,2.363c5.631-15.862,21.15-23.076,41.357-16.544
		c5.74-2.532,9.271-7.274,10.636-14.18c-2.341-2.644-8.228,1.158-11.816,1.181c1.817-6.455,14.14-2.404,14.181-10.635
		c-1.74-8.109-16.088-3.607-20.089-9.454c-4.569,2.52-11.48,2.7-18.907,2.363c-3.217,4.839-1.833,14.67-5.908,21.27
		c-4.271,1.119-1.648-4.653-2.363-7.089c0.376-3.135-6.62,1.105-4.727-3.545c2.828-0.84,4.351-0.555,9.454-1.182
		c-0.467-5.412-2.356-8.644,2.363-10.635c-2.717-3.586,0.458-13.063-5.909-12.998c-1.838-4.201,4.014-0.714,3.546-3.545
		c-0.837-4.73-5.547-0.066-7.091-2.363c0.566-6.595,2.984-8.781,1.181-18.907c-1.751,1.664-2.54,3.771-2.363-1.182
		c-9.205-1.328-12.306,3.449-17.725,5.909c7.521,31.559,6.713,70.744-23.633,83.899c-0.333-1.909,1.117-2.034,1.181-3.545
		c-5.023,0.49-9.375,1.652-11.815,4.727c2.135,3.19,4.335-3.45,9.452-1.182c-5.26,7.489-14.492,5.365-23.633,7.09
		c-11.326,2.136-22.556,6.271-35.45,5.908c-10.687-0.301-20.938-2.698-31.905-2.363c-8.507,0.26-17.711,1.755-24.815,0
		c-3.623,2.285-5.927,5.887-9.453,8.272c-2.746-2.376-7.392-2.851-12.998-2.364c4.179,2.91,12.404,1.775,15.361,5.909
		c0.86,3.224-2.349,2.378-2.363,4.726c6.519,2.411,12.05-1.097,16.544,2.363c2.864-5.265,2.175-7.334,8.271-8.271
		c0.753,4.298-2.447,4.643-5.909,4.726c0.234,7.643,13.458,2.298,16.544,7.091c10.896-7.251,13.404-0.067,27.179,0
		c-6.515,3.728-17.72,2.762-20.089,10.635c4.391,2.162,12.945-0.938,17.726-4.727c1.352,3.716-1.855,2.872-2.363,4.727
		c-0.199,2.562,4.189,0.535,5.907,1.182c3.134,0.376-1.105-6.62,3.545-4.727c5.206-0.184,0.334,3.34,0,4.727
		c2.47-0.5,3.13,0.811,4.727,1.182c4.747-1.243-0.155-4.803,1.183-9.453c-2.688-3.223-8.112-3.706-9.454-8.272
		c5.815,3.884,11.399,1.672,15.361-2.363c0.108,3.225-1.967,2.379,0,4.728c4.24,0.694,0.034-7.059,4.728-5.908
		c2.805,2.413-1.623,4.675,1.181,7.09c1.174-3.624,4.066-4.685,2.363-8.271c4.377,0.144,2.974,1.72,2.364,4.726
		c4.801,1.573,11.821-1.47,17.725-2.363c0.5-5.86-3.538-0.667-4.726-3.544c-0.436-4.957,3.848-0.845,5.908-1.182
		c4.198-3.646,7.912-1.274,12.998-4.728c1.459-3.824-3.823-0.902-2.363-4.727c3.641-0.883,1.44,4.074,5.907,2.363
		c0.881,3.637-3.242,2.271-2.362,5.909c6.471-1.407,9.26-6.496,15.362-8.272c4.489-3.887,9.141-14.424,15.361-9.453
		c-0.12,3.007-4.404,2.791-5.909,1.182c-3.337,16.126-35.015,20.866-44.902,28.36c-1.007,5.563,7.445,5.87,4.726,9.453
		c-3.93-3.619-5.809-2.005-10.635-4.727c-1.453,0.515-2.427,1.511-2.363,3.545c3.352,2.557,9.646,2.17,12.998,4.727
		c4.968-1.987,1.634-11.441,0-14.18c5.721,4.914,3.438,17.831,10.636,21.27c-2.188,13.644-4.201,22.822-8.272,37.814
		c-0.566,3.717,1.684,4.617,2.363,7.089c-1.309,8.146-7.228,11.679-8.271,20.088c-7.94,0.926-9.34,14.021-18.907,9.454
		c2.491-6.441,3.017-7.938,3.546-15.361c-1.933-1.197-3.176,2.392-3.546,2.363c-0.735-0.056-2.248-3.571-2.362-3.545
		c-7.534,1.676-8.291,10.76-12.999,17.726c-4.726,0-9.452,0-14.18,0c-3.361-6.066,2.257-9.281,4.728-13
		c-6.437-10.669,3.688-17.036,8.271-23.633c0.149-2.12-1.447-2.492-1.183-4.727c-15.829-7.12-33.738-18.114-51.992-18.907
		c-3.041-2.08-5.103-5.139-8.272-7.089c5.62-5.492-3.475-7.363,0-12.999c-0.649-3.686-3.582-5.085-4.727-8.271
		c0.473-3.073,3.525-3.564,3.545-7.09c-18.604-0.687-40.309-13.881-59.084-12.998c-4.225,0.197-7.757,3.031-11.816,3.545
		c-18.148,2.292-44.505-4.151-60.265,1.182c-19.554,6.614-47.46,15.747-66.174,23.633c-11.323,4.771-19.381,13.322-33.086,12.999
		c-5.241-0.125-10.167-3.895-15.361-3.546c-0.504-2.254-3.376-2.139-2.364-5.908c-0.834-3.104-5.545-2.332-7.09-4.727
		c-1.354-4.899,2.486-4.605,2.363-8.271c-1.62-2.713-4.866-3.801-7.089-5.908c0.315-8.745-2.096-20.215,5.908-21.271
		c-0.996-3.337-5.41-3.256-5.908-7.09c-0.619-6.133,5.532-5.497,9.453-7.09c-1.383-1.769-1.469-4.834-3.545-5.909
		c1.904-3.216,2.818-7.423,8.272-7.089c-0.132-8.009,4.78-10.976,7.089-16.544c34.815-5.767,64.338,12.364,101.624,11.816
		c3.862-1.259,4.776-5.466,8.272-7.09c5.486,3.698,7.991-4.175,15.362-2.363c5.062-3.603,7.94-9.391,16.543-9.453
		c3.617-3.473,6.188-7.993,14.18-7.09c4.455-4.209,6.741-10.59,16.544-9.453c4.029-7.797,18.044-11.876,29.541-8.272
		c19.153-12.751,45.785-18.027,73.264-22.452c-1.088-3.638-4.73-4.724-7.09-7.089c-18.782,3.417-35.414,2.982-50.813-2.363
		c-13.29-4.614-22.301-15.316-33.086-20.088c2.572,11.675,7.176,35.089-7.09,42.54c-5.633-2.655,4.002-5.807,4.727-9.454
		c-3.165-4.221-5.365,2.419-9.452,1.182c2.238-2.881,4.844-5.396,10.634-4.727c1.967-3.762,2.021-4.944,1.182-9.453
		c-4.104,2.591-7.02,6.372-11.816,8.271c-2.991-5.003,8.288-5.859,9.452-10.635c-1.561-4.54-9.159,0.649-12.998,1.182
		c1.151-6.333,11.489-3.478,15.362-7.09c-0.717-3.616-2.51-6.156-3.545-9.453c-12.255,1.924-24.728,3.632-38.995,3.545
		c2.795,4.288,2.504,7.522-1.182,10.635c14.039,1.323,19.234,11.49,20.088,25.997c-11.083-1.916-19.109-6.888-21.27-17.725
		c-2.741,0.377-4.536-0.19-5.909-1.182c-3.081,2.039-5.989,4.251-5.908,9.453c3.962,0.811,4.319-1.982,4.727-4.727
		c11.37,4.667,16.189,21.158,8.271,33.087c-8.807-3.681-8.878-12.804-10.635-20.088c-6.102,6.501-7.837,17.371-18.907,18.907
		c5.799-6.875,4.183-15.255,8.271-24.815c-9.03,2.044-8.038,13.832-5.908,20.088c-8.961-5.649-1.725-20.751,4.726-24.815
		c-6.814,0.015-12.751,0.893-23.633,1.182c0.017-3.133-0.657-6.958,2.363-7.09c5.534,0.144-1.286,1.72,0,4.726
		c6.606-2.454,10.347-7.772,17.726-9.453c-0.777-1.586-2.525-2.201-4.727-2.364c1.664-3.551,10.474-4.604,12.998-3.545
		c-0.767,1.202-2.717,1.222-2.363,3.545c1.374-0.192,2.103,0.261,2.363,1.182c2.093-5.533,6.233-2.49,10.635,0
		c-4.141-8.956,8.106,2.546,5.909-10.635c-0.021-3.917-6.678-1.199-8.271-3.544c-8.425,7.917-29.913,5.073-35.451-3.545
		c9.378,1.493,19.822,8.29,29.542,2.363c0.526-6.829-0.868-11.737-4.727-14.181c-3.064,4.484,1.542,9.355-2.363,12.999
		c-4.289-1.226-7.109-3.92-10.635-5.909c0.813-4.752-1.132-6.746-1.182-10.635c-5.246-0.913-4.757,3.908-7.09,5.908
		c-2.371-0.402-3.697,0.241-3.545,2.363c-7.249,0.731-12.847,3.523-18.907-1.182c7.006-4.417,13.199-9.646,20.088-14.18
		c-9.836-1.946-18.614,7.372-27.178,10.634c-5.592-3.072-12.307-5.024-12.998-12.998c10.379-0.65,24.25,2.193,28.36-4.727
		c-8.887,1.422-19.812-6.125-22.452-17.725c13.436-6.768,25.905,11.602,37.813,12.998c0.986-5.317-5.56-3.105-3.545-9.453
		c-4.495-1.737-0.232,5.282-4.726,3.545c1.266-3.46,3.353-6.1,2.363-11.818c-1.446-2.099-6.849-0.241-4.727-5.907
		c11.819,3.148,13.62,16.316,20.088,24.815c4.728-3.544,4.167-12.377,10.635-14.181c0.194,3.739-3.14,3.95-2.363,8.272
		c1.75-0.615,2.979-1.75,4.727-2.363c2.213-10.325-7.644-14.096-3.545-22.453c5.506,3.948,6.688,12.219,8.272,20.089
		c9.592-4.741,13.372-6.103,24.815-3.545c-5.471-5.165-13.402-7.868-14.181-17.726c12.887-1.07,19.764,3.87,22.452,12.998
		c6.996-3.015,8.122-17.652,20.088-11.816c0.065,5.187-3.909,6.331-4.727,10.636c3.037,0.666,11.838-3.826,20.088-1.182
		c-5.559,10.025-15.263,12.27-24.815,10.635c-1.048,7.35,9.808,2.797,10.635,8.272c2.026-1.52,4.647-2.443,4.727-5.908
		c3.611,2.749,10.012,0.389,12.998-1.182c-1.326-4.889-0.837-6.768,2.363-9.455c5.218-0.17-0.112,2.895,1.182,5.909
		c9.429-1.6,9.56-12.498,15.361-17.726c4.128,2.703-2.791,4.187-1.182,8.272c6.326,3.922,10.588-4.351,16.544-4.727
		c-2.658,6.007-9.22,8.112-17.726,8.271c-4.687,3.979-8.235,9.096-14.18,11.818c-0.192,3.648,2.793,6.68,0,9.453
		c11.693,0.27,13.952-8.894,17.726-16.543c3.494,2.07-0.683,6.296,0,9.454c8.54-0.125,9.045-8.286,16.543-9.454
		c-1.222,3.11-4.687,3.98-5.908,7.09c-0.696,4.24,7.057,0.032,5.908,4.727c-9.679-1.389-8.936-1.184-18.908,0
		c-4.169,3.313-6.694,8.272-14.18,8.271c-2.137,7.316-9.214,9.691-14.18,14.18c10.861,22.113,42.121,33.617,73.263,24.815
		c-2.027-7.639-4.161-15.772-7.089-23.634c-3.521-9.449-12.682-20.094-7.09-33.086c4.627-0.689,3.016,4.86,5.907,5.909
		c2.868-0.678-0.554-7.645,3.546-7.09c5.736,0.386,1.79,6.928,7.089,2.363c-2.619,4.724,2.389,6.407,3.546,10.636
		c2.2-3.71,0.33-11.488,8.271-9.454c2.577,9.227,3.254,17.847,7.09,28.359c4.808,13.175,13.799,22.766,16.543,34.269
		c-2.758-2.362-5.644-4.598-7.089-8.272c-3.051,0.947-10.017,4.085-7.091,7.09c-1.075,3.208-4.142-1.205-5.907-1.182
		c2.773,0.962-0.465,7.853-1.183,5.909c1.741,4.714,28.842,2.717,34.269,0c8.426-4.222,11.979-16.048,16.543-27.179
		c4.999-12.191,12.541-20.894,15.361-27.178c14.117-14.949,37.597-21.665,67.355-17.725c8.443-6.053,22.596-15.242,36.632-8.271
		c0.931,4.869-4.081,3.741-7.09,7.09C461.301,15.593,462.625,14.663,462.14,13.177z M148.998,85.26
		c-1.223,3.11-4.686,3.979-5.909,7.089C149.316,94.468,154.466,87.554,148.998,85.26z M189.175,13.177
		c2.242,0.25,6.929-5.543,2.363-4.726C192.998,12.274,187.715,9.354,189.175,13.177z M445.598,19.086
		c6.532-2.527,12.912-5.206,17.725-9.453C456.285,7.224,446.972,11.973,445.598,19.086z M442.052,19.086
		C438.071,15.498,438.469,23.455,442.052,19.086L442.052,19.086z M97.004,27.358c-0.407-3.138-3.102-3.989-5.908-4.727
		C91.504,25.769,94.198,26.62,97.004,27.358z M403.058,24.995c4.935,2.381,19.174,14.64,20.088,0
		C416.278,25.822,407.701,20.749,403.058,24.995z M163.178,33.266c-2.628,8.014-12.917,13.314-23.633,9.455
		c2.776,8.646,11.5,11.345,11.817,22.452c11.352,0.365,16.279,2.103,27.178,0c-2.428-9.783-21.063-3.358-22.451-14.181
		c5.346,1.35,6.984,6.408,15.361,4.727c3.638-2.156-2.374-6.624,1.182-8.271c3.918,0.414,1.854,6.811,2.363,10.635
		c4.205,0.522,5.176,4.278,8.272,5.909c9.463-0.385,19.21-0.485,21.271-8.272c-1.195-4.546-4.918-6.029-7.09-10.635
		c-2.262-4.796-0.917-12.467-5.908-14.181c0.121,6.392,3.246,14.721-1.182,18.908c-4.544-4.389-9.053-11.5-7.09-18.908
		c-4.186,0.362-2.161,4.96-3.545,7.091c-2.904,4.473-13.794,8.679-18.907,7.09c1.362-8.486,8.797-10.897,11.817-17.725
		c-9.007,2.042-20.795,1.371-25.997-1.182c0.063,2.033-0.91,3.029-2.364,3.545c0.153-2.122-1.173-2.766-3.545-2.363
		C143.755,34.701,154.862,29.658,163.178,33.266z M217.535,26.177c-1.539,2.794-6.388,2.277-9.453,3.545
		c-0.899,4.444,6.275,0.814,4.727,5.908c-5.232,4.418-13.936-3.356-15.362,1.182c2.069,2.658,2.809,6.645,4.727,9.454
		C214.891,49.528,224.708,31.25,217.535,26.177z M378.242,46.265c6.826-0.658,5-9.968,10.635-11.817
		c2.318,4.594-1.23,6.64-1.182,10.635c1.717-0.647,6.107,1.38,5.908-1.182c-6.082-4.725,3.541-11.498,5.908-15.362
		C387.419,24.731,381.478,37.28,378.242,46.265z M136,34.448c0.788,0,1.575,0,2.363,0c0.065-1.51,1.515-1.636,1.182-3.546
		c-0.788,0-1.575,0-2.363,0C137.117,32.414,135.667,32.54,136,34.448z M291.98,37.993c3.445,1.738,3.445-5.282,0-3.545
		C291.98,35.63,291.98,36.812,291.98,37.993z M284.891,47.447c-2.658-3.646-4.058-8.548-8.271-10.635
		C277.781,41.198,281.114,49.598,284.891,47.447z M400.693,46.265c3.215-0.724,4.632-3.247,4.728-7.09
		C399.112,31.739,391.333,44.104,400.693,46.265z M97.004,45.083C85.33,44.918,102.741,45.165,97.004,45.083L97.004,45.083z
		 M290.798,59.263c3.606-0.973,2.835-3.322,7.091-1.182c0-1.575,0-3.151,0-4.727c-1.769-0.201-4.361,0.422-4.727-1.182
		c0-1.182,0-2.363,0-3.544c2.957,0.146,3.698,2.255,4.727-1.182c-2.786-0.365-2.199-4.104-5.908-3.545
		C291.762,47.368,290.814,52.617,290.798,59.263z M408.965,48.628c-8.015,3.812-17.923-0.234-24.815,0
		C389.155,54.755,408.041,60.987,408.965,48.628z M296.707,60.445C293.065,67.525,301.079,66.232,296.707,60.445L296.707,60.445z
		 M288.435,73.443c0.347-0.725,2.941-4.548,0-4.726C288.09,69.441,285.495,73.266,288.435,73.443z M404.238,71.08
		c3.106,3.072,0.93-1.909,4.727-1.181c-0.855,2.689-1.054,6.037-2.363,8.271c1.628-0.051,2.596,0.557,3.546,1.182
		c-0.805-4.914,10.245-5.926,3.544-9.453c-1.089,6.34-3.726-2.337-7.09-1.182C406.588,70.278,404.531,69.796,404.238,71.08z
		 M384.149,73.443c3.179,0.814,2.285-2.442,3.546-3.544C385.118,69.684,383.935,70.865,384.149,73.443z M413.691,81.715
		c3.661,0.456,4.812-5.691,1.183-5.908C413.881,77.178,413.316,78.975,413.691,81.715z M299.071,79.352
		c-0.696,1.089,7.057,0.893,5.907-2.363C302.745,77.512,297.856,75.381,299.071,79.352z M387.695,81.715
		c3.007-0.145,4.582-1.72,4.728-4.727c-1.97,0-3.94,0-5.909,0C386.426,79.047,386.776,80.663,387.695,81.715z M528.314,95.895
		c0.756-5.876-3.592-6.65-3.546-11.816c-3.939,0-7.877,0-11.815,0C517.149,88.94,522.787,92.361,528.314,95.895z M300.252,98.258
		C295.476,94.102,297.465,102.06,300.252,98.258L300.252,98.258z M366.425,99.44c0.788,0,1.577,0,2.363,0c0-0.788,0-1.576,0-2.363
		c-0.786,0-1.575,0-2.363,0C366.425,97.864,366.425,98.652,366.425,99.44z M525.951,100.622c1.97,0,3.938,0,5.907,0
		C532.233,95.083,526.394,97.459,525.951,100.622z M273.073,105.349c0.788,0,1.575,0,2.363,0c0.065-1.511,1.516-1.637,1.183-3.545
		c-1.183,0-2.364,0-3.546,0C273.073,102.985,273.073,104.167,273.073,105.349z M312.069,105.349c2.092-0.27,5.917,1.191,4.727-2.364
		c-1.577,0-3.152,0-4.727,0C312.069,103.773,312.069,104.56,312.069,105.349z M317.977,106.53c4.329,5.213,2.739,6.032,0,11.816
		c1.575,0,3.151,0,4.728,0c2.193-5.882-0.217-8.927,7.09-7.09c-0.437-6.263-8.772-0.104-4.727-8.271
		C319.836,101.299,321.976,106.983,317.977,106.53z M490.501,112.438c0.938-4.183,4.368-5.873,5.908-9.453
		C492.763,103.723,487.326,108.801,490.501,112.438z M347.519,105.349c-0.172,3.322,2.895,3.408,5.908,3.544
		C353.626,105.238,349.269,103.579,347.519,105.349z M501.136,107.712c0-0.789,0-1.576,0-2.363
		C498.955,101.423,495.375,108.896,501.136,107.712z M278.982,113.62c3.188,0.726,9.71-4.111,11.815-8.271
		C286.479,107.727,280.259,108.202,278.982,113.62z M333.338,111.256C349.764,117.147,336.366,96.629,333.338,111.256
		L333.338,111.256z M393.604,110.075c3.853,0.307,5.687-1.403,5.908-4.726C396.635,106.016,393.433,106.359,393.604,110.075z
		 M254.167,110.075c2.233-0.524,7.121,1.607,5.908-2.363C257.145,107.538,254.341,107.492,254.167,110.075z M262.438,110.075
		c1.182,0,2.363,0,3.545,0c0.153-2.121-1.173-2.765-3.545-2.363C262.438,108.5,262.438,109.287,262.438,110.075z M294.344,114.802
		c1.204-1.552,1.158-4.356,2.363-5.909C291.594,107.094,290.329,114.292,294.344,114.802z M388.877,113.62c0-1.575,0-3.151,0-4.727
		c-5.384-1.053-4.341,8.938,0,8.272c1.077-0.321,3.139-5.233,1.182-4.727C389.991,113.16,389.884,113.837,388.877,113.62z
		 M365.244,113.62c0.107-1.862,3.013-0.925,2.363-3.545c-1.183,0-2.363,0-3.546,0C364.246,111.466,363.858,113.429,365.244,113.62z
		 M375.879,123.073c2.122-0.152,2.765,1.174,2.363,3.545c2.685-0.861,9.22,2.128,8.271-2.363c-1.987-3.743-6.78-0.185-8.271-2.364
		c1.069-3.656,2.943-6.509,4.727-9.454c-7.44,0.515-13.212-3.236-14.181,4.727c3.609,0.062,2.835-4.256,7.091-3.545
		C378.409,116.792,378.409,119.901,375.879,123.073z M528.314,114.802c0.062-2.033-0.91-3.029-2.363-3.545
		C525.887,113.29,526.859,114.286,528.314,114.802z M351.063,119.528c4.489,0.156,5.576-3.091,5.909-7.09
		C353.006,112.806,352.259,116.391,351.063,119.528z M230.534,114.802c-0.476,3.858-2.826,5.841-8.273,4.727
		c0.571,3.722-3.626,2.675-2.363,7.09c6.727-6.073,14.445-4.254,18.906-12.999C235.287,113.559,232.81,117.096,230.534,114.802z
		 M329.794,119.528c4.925-1.256,5.212-0.306,10.635,0c0.015-2.348,3.225-1.502,2.363-4.727
		C338,116.853,331.023,110.345,329.794,119.528z M356.973,117.165c-1.313,3.71-0.555,3.122,1.181,5.908
		c3.794-0.579,10.8-6.36,5.908-8.271C363.93,117.82,360.105,117.147,356.973,117.165z M390.059,123.073
		c1.397,1.361,4.177,1.338,7.091,1.182c-0.051-1.627,0.557-2.595,1.181-3.545c-4.693,1.149-0.485-6.604-4.727-5.908
		C392.917,118.055,390.661,119.738,390.059,123.073z M256.53,119.528c0.788,0,1.576,0,2.363,0c0-0.787,0-1.576,0-2.363
		c-0.788,0-1.575,0-2.363,0C256.53,117.953,256.53,118.741,256.53,119.528z M304.979,124.255c-1.336-2.604-1.359-6.519-4.727-7.09
		C300.348,121.009,301.765,123.531,304.979,124.255z M330.975,126.619c0.271-4.209-1.699-6.179-5.907-5.909
		c-0.139,6.441,4.451,8.153,9.453,9.453c0.578-7.724,16.474-2.265,16.543-7.09c-4.146-1.352-7.654-0.271-3.545-5.908
		C340.365,118.677,339.012,125.99,330.975,126.619z M373.516,119.528c0.787,0,1.575,0,2.363,0c0-0.787,0-1.576,0-2.363
		c-0.788,0-1.576,0-2.363,0C373.516,117.953,373.516,118.741,373.516,119.528z M210.445,125.437c4.788,1.432,11.629-5.66,7.09-5.909
		C214.834,121.16,210.163,120.821,210.445,125.437z M362.881,126.619c6.575-3.521,8.695,2.062,11.816-3.545
		c-2.233-0.131-0.821-3.907-3.546-3.545C370.769,124.266,363.908,122.526,362.881,126.619z M202.173,124.255
		c1.182,0,2.364,0,3.545,0c0.152-2.122-1.173-2.766-3.545-2.364C202.173,122.68,202.173,123.467,202.173,124.255z M315.613,133.708
		c-3.182-2.332-3.207-7.822-4.727-11.816C308.826,125.417,309.902,134.205,315.613,133.708z M295.525,124.255
		c-1.769,0.201-4.361-0.422-4.728,1.182C292.368,126.971,295.195,126.994,295.525,124.255z M395.967,134.89
		c3.364-0.969,5.998-2.666,7.091-5.909c0.199-2.957-1.816-3.699-3.546-4.726C399.117,128.587,394.829,129.026,395.967,134.89z
		 M347.519,132.526c1.371,0.992,3.169,1.559,5.908,1.182c-1.652-5.986,5.421-3.244,4.727-8.271
		C351.638,124.829,349.693,128.793,347.519,132.526z M200.991,128.981c-0.083,4.81,4.367,5.087,9.454,4.727
		c0.753,2.578-3.35,3.76,1.182,3.545c1.346-2.651,6.251-7.851,3.545-10.635C211.709,132.776,207.607,126.601,200.991,128.981z
		 M293.162,130.163c-3.026,0.552-6.698-4.18-8.271-1.182C286.069,130.277,291.332,133.417,293.162,130.163z M189.175,131.345
		c-2.084-1.031-3.659-3.955-4.727,0C187.142,129.722,188.89,134.391,189.175,131.345z M262.438,130.163
		C257.662,126.008,259.651,133.965,262.438,130.163L262.438,130.163z M339.246,131.345c2.094-0.269,5.919,1.191,4.728-2.363
		c-1.576,0-3.15,0-4.728,0C339.246,129.77,339.246,130.557,339.246,131.345z M364.062,136.072c4.396,1.243,2.316-3.985,4.727-4.727
		c0.462,1.687,1.419,1.993,0,3.545c0.788,0,1.577,0,2.363,0c1.326-0.25,1.841-1.311,2.364-2.364
		c-2.121,0.153-2.766-1.173-2.364-3.545C366.53,129.087,363.144,130.428,364.062,136.072z M197.446,136.072
		c-2.586,3.322-3.911,7.906-5.908,11.817c3.641,0.884,1.44-4.074,5.908-2.363c-2.696-4.969,3.113-6.615,2.363-12.999
		c-2.42-0.43-7.743-3.948-9.453-1.182C191.9,133.74,196.611,132.967,197.446,136.072z M323.885,143.162
		c-0.183-3.333-4.428-8.508,1.183-12.999C317.917,129.963,317.218,142.202,323.885,143.162z M369.971,149.07c2.363,0,4.727,0,7.09,0
		c0.978-3.34-1.665-3.061-1.182-5.908c3.254-2.261,8.784-2.245,9.453-7.09c-3.026-1.281-5.635,3.589-7.09,0
		c0.364-2.787,4.104-2.199,3.544-5.909c-2.363,0-4.726,0-7.089,0C376.873,136.463,370.992,142.309,369.971,149.07z M307.342,131.345
		c-3.208,0.732-9.378-1.5-10.635,1.182C298.111,133.584,307.893,135.854,307.342,131.345z M355.79,134.89c1.183,0,2.363,0,3.545,0
		c0-1.182,0-2.364,0-3.545c-0.787,0-1.576,0-2.362,0C356.907,132.855,355.456,132.981,355.79,134.89z M335.702,136.072
		c0.787,0,1.574,0,2.363,0c1.838-2.908-4.014-3.476-3.545-1.182C335.242,134.957,335.92,135.066,335.702,136.072z M390.059,136.072
		c0.787,0,1.576,0,2.364,0c0-0.788,0-1.575,0-2.364c-0.788,0-1.577,0-2.364,0C390.059,134.497,390.059,135.284,390.059,136.072z
		 M183.266,139.617c3.065,2.201,9.99,0.367,9.454-4.727C188.334,135.23,184.603,136.226,183.266,139.617z M236.441,144.344
		c2.607,7.407,13.872,6.667,22.453,8.271c6.946,1.299,17.368,7.77,18.906,0c-9.744-1.97-19.153-1.449-27.178-3.545
		c-11.757-3.07-20.013-13.624-31.906-12.998C224.392,138.872,229.513,146.5,236.441,144.344z M280.163,143.162
		c0.139-6.079-9.519-8.556-12.999-7.09C270.96,138.972,275.78,140.848,280.163,143.162z M342.792,138.435c0-0.787,0-1.576,0-2.363
		C340.611,132.146,337.031,139.619,342.792,138.435z M299.071,137.253c-2.83-0.715-5.393-1.699-9.454-1.182
		C289.954,139.387,298.947,140.823,299.071,137.253z M192.72,152.615c5.586,0.465,8.517-1.725,8.271-7.089
		c5.304,0.906,11.299-8.698,2.363-8.272C204.346,144.465,196.652,147.113,192.72,152.615z M301.435,139.617
		c5.586-0.467,9.861,0.379,14.179,1.182C313.548,136.821,303.412,137.177,301.435,139.617z M170.268,140.798
		c2.966-0.973,10.175,2.297,9.453-2.363c-3.151,0-6.302,0-9.453,0C170.268,139.223,170.268,140.011,170.268,140.798z
		 M352.246,145.525c5.899,1.173,5.388-4.065,7.089-7.09C355.469,139.296,354.128,142.681,352.246,145.525z M386.514,141.98
		c1.766,1.875,6.737,1.728,5.909-2.363c-1.628,0.051-2.597-0.557-3.546-1.182C388.595,140.121,386.931,140.428,386.514,141.98z
		 M328.611,150.251c1.258,0.848,5.443,4.615,7.091,1.182c-1.052-2.494-5.037-2.052-4.728-5.908c1.374-2.172,6.272-0.819,4.728-5.909
		C330.532,140.356,328.276,144.008,328.611,150.251z M294.344,143.162c-2.349-0.015-1.502-3.224-4.727-2.363
		C288.373,143.787,293.602,146.037,294.344,143.162z M392.423,151.433c11.564,0.202,4.907-4.379,8.271-10.635
		C396.462,142.868,393.348,146.057,392.423,151.433z M172.631,147.889c6.219-1.492,7.006,2.447,11.816,2.363
		C189.051,141.039,176.121,143.667,172.631,147.889z M186.812,145.525c1.857-0.113,4.097,0.158,3.545-2.364
		c-0.788,0-1.576,0-2.363,0C187.996,144.347,187.036,144.568,186.812,145.525z M359.335,147.889c0.787,0,1.576,0,2.363,0
		c-0.004-1.186,0.957-1.407,1.183-2.363c-1.512-0.065-1.637-1.515-3.546-1.182C359.335,145.525,359.335,146.707,359.335,147.889z
		 M154.906,146.707c0.136,6.047,3.912,1.607,8.272,2.363C163.043,143.022,159.268,147.462,154.906,146.707z M333.338,164.433
		c7.724,1.421,9.717-2.89,15.362-3.546c-3.104-4.508-4.533-8.7-1.182-14.18c-7.183,0.873-5.924,8.934-4.727,15.361
		C339.826,163.042,332.617,159.771,333.338,164.433z M24.923,152.615c1.609,0.146,12.882,1.555,14.18-2.363
		C35.914,148.529,27.43,149.906,24.923,152.615z M359.335,164.433c-0.398-3.935-4.825-3.841-4.726-8.272
		c1.054-0.938,5.231-7.24,0-7.09C350.42,154.367,352.239,163.774,359.335,164.433z M390.059,164.433
		c0.016-2.349,3.225-1.504,2.364-4.728c-11.382,2.056,2.09-14.48-5.909-9.454C386.924,152.814,383.047,162.89,390.059,164.433z
		 M163.178,154.978c3.007-0.144,4.583-1.719,4.727-4.727C165.268,150.765,163.692,152.341,163.178,154.978z M190.356,151.433
		c-1.598-0.371-2.257-1.681-4.727-1.182C185.131,154.672,189.169,153.886,190.356,151.433z M321.521,151.433
		C317.032,148.165,316.329,155.769,321.521,151.433L321.521,151.433z M309.705,153.796c0.787,0,1.575,0,2.364,0
		c1.836-2.907-4.015-3.475-3.546-1.182C309.243,152.682,309.922,152.792,309.705,153.796z M364.062,162.068
		c2.948-0.842,4.855,5.201,7.09,1.182c-4.118-0.608-1.731-7.72-2.363-11.817c-1.39,0.186-3.354-0.203-3.544,1.182
		C367.839,154.153,363.847,159.002,364.062,162.068z M374.697,158.523c4.061,1.853,5.607-7.912,1.182-7.09
		C376.735,155.047,373.839,154.909,374.697,158.523z M78.098,158.523c-8.935-0.822-22.451-7.029-30.724-5.909
		c-1.808,0.245-2.996,2.187-4.728,2.363c-10.925,1.113-20.217-0.707-23.632,7.09c21.993-7.867,47.455-2.992,73.263,0
		C89.92,157.116,81.148,158.804,78.098,158.523z M144.271,153.796c-0.4-0.955-3.137-1.426-3.545,0
		C139.944,156.535,145.343,156.352,144.271,153.796z M176.176,154.978c2.094-0.269,5.917,1.191,4.727-2.363c-1.575,0-3.15,0-4.727,0
		C176.176,153.403,176.176,154.19,176.176,154.978z M216.353,157.342c-0.661-2.952-7.394-5.907-9.453-3.545
		C211.535,153.494,211.292,158.071,216.353,157.342z M284.891,154.978c-2.314-0.205-6.718-4.311-5.908,1.182
		c4.698,3.422,12.697-1.095,16.543,1.182C295.382,153.003,288.136,155.267,284.891,154.978z M128.91,159.705
		c1.182,0,2.363,0,3.545,0c0.152-2.122-1.173-2.765-3.545-2.363C128.91,158.129,128.91,158.918,128.91,159.705z M189.175,159.705
		c2.033,0.063,3.029-0.909,3.545-2.363C190.687,157.278,189.69,158.252,189.175,159.705z M330.975,157.342
		c-7.495,0.774-18.101-1.558-23.633,1.182C313.079,160.371,326.856,160.96,330.975,157.342z M140.726,163.25
		c0.283-1.686,1.946-1.992,2.363-3.545C140.656,158.67,137.783,162.77,140.726,163.25z M170.268,162.068
		c2.033,0.063,3.029-0.909,3.545-2.363C171.78,159.642,170.784,160.615,170.268,162.068z M212.808,160.887
		c-0.717-0.681-5.605-2.766-5.908,0C209.004,160.181,211.808,164.351,212.808,160.887z M276.619,166.794
		c0.132-4.115-4.993-4.329-7.09-4.726c-8.299-1.567-20.766,1.464-29.543-2.363c-0.917,0.265-2.331,0.032-2.363,1.182
		C248.101,165.378,262.521,165.925,276.619,166.794z M381.786,165.614c0.537-4.477-3.621-4.259-5.907-5.909
		C374.554,164.969,379.507,163.955,381.786,165.614z M179.721,167.978c2.201-1.131,3.949,3.538,4.727,0
		c-5.123-1.621,0.091-4.867,1.182-7.091C181.824,161.414,178.768,162.691,179.721,167.978z M141.908,167.978
		c1.192,0.914,4.392,5.663,5.909,2.362c-7.306-1.984,0.119-4.741,1.182-8.271C145.081,162.484,143.873,165.607,141.908,167.978z
		 M151.361,169.158c3.678-1.048,4.205-5.248,7.09-7.09C153.784,162.128,151.42,164.491,151.361,169.158z M164.36,164.433
		c0.739,4.811,8.014,9.268,12.998,5.907c-2.803-0.782-7.931-0.989-10.635-4.726c1.485-0.485,2.415-1.524,2.363-3.546
		C165.862,161.207,166.708,164.417,164.36,164.433z M205.718,166.794c-0.406-2.743-0.764-5.536-4.727-4.726
		C200.181,166.03,202.974,166.388,205.718,166.794z M312.069,164.433c1.181,0,2.363,0,3.544,0c0.153-2.123-1.172-2.767-3.544-2.364
		C312.069,162.856,312.069,163.644,312.069,164.433z M199.81,167.978c-5.094,0.761-3.71-4.956-8.271-4.728
		C190.759,167.642,197.168,170.921,199.81,167.978z M222.261,165.614c0.788,0,1.576,0,2.363,0c0-0.789,0-1.576,0-2.364
		c-0.787,0-1.576,0-2.363,0C222.261,164.038,222.261,164.825,222.261,165.614z M278.982,166.794c4.726,0,9.452,0,14.18,0
		C291.782,162.138,280.361,162.138,278.982,166.794z M321.521,167.978c1.453-2.486,7.115-0.764,8.272-3.545
		C328.953,162.937,317.147,164.481,321.521,167.978z M346.337,167.978c2.936,0.176,4.904-0.611,5.909-2.363
		C350.47,163.729,347.271,165.646,346.337,167.978z M306.16,167.978c0.787,0,1.576,0,2.363,0c0-0.789,0-1.576,0-2.363
		c-0.787,0-1.576,0-2.363,0C306.16,166.401,306.16,167.188,306.16,167.978z M336.884,170.34c2.2-0.162,3.949-0.777,4.726-2.362
		C338.916,167.646,337.169,168.262,336.884,170.34z M24.923,184.521c-5.08-0.677-14.186-0.621-15.362,5.908
		c8.616-1.313,15.386-7.806,24.816-4.727c4.024-0.8-5.206-3.927-1.182-4.727c9.174,3.193,12.357-4.605,18.906,0
		c1.461-3.824-3.824-0.903-2.363-4.727c5.231-1.294,5.876,2.001,9.453,2.363c14.658-7.765,31.168-0.88,49.63-8.272
		C80.914,172.234,43.804,169.945,24.923,184.521z M190.356,170.34c-1.511-0.064-1.637-1.514-3.545-1.182
		C184.974,172.066,190.825,172.633,190.356,170.34z M333.338,170.34c-1.521-1.628-5.132-1.169-8.271-1.182
		C323.614,173.087,333.054,172.049,333.338,170.34z M335.702,173.885c5.25,6.809,15.871-0.244,20.088-4.727
		C349.444,171.085,343.93,173.842,335.702,173.885z M256.53,175.067c-1.036-3.794,3.065-2.45,3.545-4.728
		C256.425,168.795,253.371,173.693,256.53,175.067z M274.255,170.34c-2.447,0.703-7.763-1.46-8.272,1.182
		C270.188,170.523,273.064,174.943,274.255,170.34z M377.061,172.703c2.093-0.269,5.918,1.19,4.726-2.363
		C379.586,170.502,377.838,171.117,377.061,172.703z M138.363,173.885c0.789,0,1.576,0,2.363,0c0-0.787,0-1.574,0-2.363
		c-0.788,0-1.575,0-2.363,0C138.363,172.311,138.363,173.098,138.363,173.885z M427.872,175.067
		c0.282-1.687,1.947-1.994,2.364-3.546C427.802,170.486,424.929,174.586,427.872,175.067z M166.723,175.067
		c1.822-3.568-6.115-3.109-5.909-1.183C163.555,173.508,165.352,174.074,166.723,175.067z M260.075,173.885
		c-0.58,4.254,11.301,3.407,9.454-1.182C266.699,173.418,264.137,174.402,260.075,173.885z M308.523,176.249
		c0.813-3.178-2.442-2.285-3.545-3.546C304.271,175.774,305.454,176.956,308.523,176.249z M143.089,177.431
		c0.067-0.722,0.176-1.399,1.182-1.182c-0.133-1.441-0.353-2.799-2.363-2.364C142.093,175.275,141.705,177.24,143.089,177.431z
		 M273.073,176.249c1.182,0,2.363,0,3.546,0c0.152-2.123-1.175-2.766-3.546-2.364C273.073,174.673,273.073,175.461,273.073,176.249z
		 M354.609,178.612c2.991-1.342,6.699-1.966,8.271-4.728C358.083,173.421,354.647,174.317,354.609,178.612z M366.425,178.612
		c4.643-0.086,6.521-2.934,9.454-4.728C372.2,174.934,367.751,175.21,366.425,178.612z M382.969,176.249c0.788,0,1.575,0,2.363,0
		c0-0.788,0-1.576,0-2.364c-0.788,0-1.575,0-2.363,0C382.969,174.673,382.969,175.461,382.969,176.249z M150.18,178.612
		c1.511,0.064,1.636,1.515,3.545,1.182c0.063-2.033-0.911-3.029-2.364-3.545C151.365,177.435,150.404,177.654,150.18,178.612z
		 M13.106,180.976c2.094-0.27,5.917,1.19,4.727-2.363c-1.576,0-3.152,0-4.727,0C13.106,179.399,13.106,180.187,13.106,180.976z
		 M144.271,180.976c2.094-0.27,5.918,1.19,4.727-2.363c-1.576,0-3.151,0-4.727,0C144.271,179.399,144.271,180.187,144.271,180.976z
		 M299.071,180.976c-1.864-0.107-0.926-3.014-3.546-2.363C293.658,181.876,298.592,183.914,299.071,180.976z M264.801,180.976
		c-0.716-0.682-5.605-2.767-5.908,0C261.829,179.438,263.797,184.442,264.801,180.976z M171.45,183.339c1.182,0,2.364,0,3.544,0
		c0.153-2.122-1.173-2.766-3.544-2.363C171.45,181.763,171.45,182.551,171.45,183.339z M307.342,184.521c0-1.182,0-2.363,0-3.545
		c-1.182,0-2.363,0-3.546,0C303.581,183.554,304.765,184.735,307.342,184.521z M309.705,183.339
		c2.234-0.524,7.122,1.607,5.908-2.363C312.683,180.801,309.879,180.755,309.705,183.339z M328.611,180.976
		c-3.938,0-7.878,0-11.815,0C316.029,184.782,329.378,184.782,328.611,180.976z M330.975,183.339
		c2.096-0.27,5.918,1.191,4.728-2.363c-1.576,0-3.15,0-4.728,0C330.975,181.763,330.975,182.551,330.975,183.339z M206.9,182.157
		c-1.768,0.201-4.361-0.423-4.727,1.182C203.743,184.872,206.57,184.896,206.9,182.157z M185.63,197.519
		c2.545,3.559,7.272,1.82,10.634,0c0.25-4.188-5.543-2.334-4.726-7.09c4.001-0.725,9.126-0.328,8.271-5.908
		c-5.525,0.578-7.689,1.402-11.816-1.182C186.568,187.428,185.832,192.206,185.63,197.519z M362.881,185.702
		c2.095-0.27,5.917,1.191,4.727-2.363C364.914,183.008,363.164,183.623,362.881,185.702z M128.91,190.429
		c5.176-2.879,11.432,0.626,15.361-4.727C136.112,186.236,130.412,182.616,128.91,190.429z M182.084,199.883
		c-1.718-6.651,0.129-9.06,2.363-14.181C176.341,183.764,174.188,199.702,182.084,199.883z M198.628,192.792
		c0.118,2.732,5.197,6.494,7.09,3.545c-1.73-1.027-3.746-1.769-3.545-4.727c2.193-0.657,8.468-3.224,9.454-1.182
		c-1.855,0.508-1.01,3.716-4.727,2.363c0.907,3.819,3.27,6.183,7.09,7.091c2.615-2.597-2.072-3.927-2.363-7.091
		c2.132-2.595,8.533-0.92,8.271-5.908C209.875,185.695,202.888,185.979,198.628,192.792z M288.435,188.065
		c1.856-0.113,4.097,0.158,3.546-2.363c-0.789,0-1.576,0-2.363,0C289.621,186.887,288.66,187.108,288.435,188.065z M120.638,190.429
		c-10.481,3.182-28.145,8.343-37.813,11.817c-9.06,3.254-19.064,3.427-27.178,5.907c-0.487,0.149-3.147,3.413-4.727,3.546
		c-4.322,0.361-3.551-1.354-5.908,2.363c-3.107,0.351-0.931-4.584-4.727-3.546c-2.422,4.274-9.408,3.983-15.361,4.728
		c0.283-3.263,4.394-2.697,5.908-4.728c-5.562-1.229-5.942,2.725-8.272,4.728c-3.318,1.584-8.435-1.183-9.452,4.727
		c21.729-0.843,45.161-6.436,64.992-12.999c6.161-2.039,11.93-6.07,17.725-7.089c9.967-1.755,15.929-2.597,23.633-5.909
		c2.049-0.88,4.616-3.53,5.909-4.727C122.9,186.32,122.45,189.879,120.638,190.429z M216.353,195.155
		c1.497,2.049,3.994,3.097,3.545,7.091c4.565-0.232,8.708-0.043,11.818,1.182c-1.799-8.773,7.585-0.019,7.088-8.272
		c-3.018,0.903-5.432,1.741-7.088-1.182c-1.154-6.883,7.061,0.097,5.907-4.727C229.009,184.99,219.746,190.259,216.353,195.155z
		 M128.91,197.519c7.525-3.109,18.449-2.821,24.815-7.09C144.591,191.604,133.54,192.107,128.91,197.519z M241.169,196.337
		c4.185,0.64,2.905-4.185,7.09-3.545c-0.525,2.986,10.251,4.264,9.453,0C254.088,193.023,241.859,186.249,241.169,196.337z
		 M167.905,195.155c2.094-0.27,5.918,1.191,4.727-2.363C169.938,192.462,168.189,193.076,167.905,195.155z M16.651,196.337
		c-1.511-0.064-1.637-1.515-3.545-1.182C11.269,198.063,17.12,198.631,16.651,196.337z M111.185,202.246
		c3.652-3.438,13.491-0.69,15.362-5.909C120.843,197.724,113.356,197.326,111.185,202.246z M166.723,199.883
		c2.033,0.063,3.029-0.91,3.545-2.364C168.411,197.631,166.171,197.36,166.723,199.883z M456.232,202.246
		c3.699,0.548,5.274-1.028,4.727-4.728c-1.183,0-2.363,0-3.546,0C457.679,199.752,456.082,200.125,456.232,202.246z M98.186,206.972
		c3.496-1.624,8.537-1.704,10.635-4.726C103.727,202.271,99.73,203.395,98.186,206.972z M11.924,210.517
		c1.71,4.468-3.246,2.268-2.363,5.909c3.48-0.544,12.904-6.131,7.091-8.272C17.842,211.708,14.019,210.248,11.924,210.517z
		 M82.824,211.699c0.789,0,1.576,0,2.364,0c0-0.789,0-1.576,0-2.364c-0.788,0-1.575,0-2.364,0
		C82.824,210.123,82.824,210.91,82.824,211.699z M73.372,215.244c1.971-1.967,8.627,0.749,8.271-3.545
		C78.727,212.722,73.463,211.396,73.372,215.244z M347.519,216.426c3.61,0.853,4.307-1.209,7.091-1.182
		C355.062,209.261,346.613,211.845,347.519,216.426z M37.921,224.697c-5.829,1.453-13.551-0.635-18.907,4.727
		c13.097,2.478,25.09-5.553,33.086-8.271c4.451-1.514,12.376,0.367,15.362-4.727C56.136,216.959,46.957,222.445,37.921,224.697z
		 M284.891,221.152c-5.291,0.891-2.714,2.805-5.908,4.727c-0.251-1.325-1.313-1.839-2.363-2.363c2.071,3.54-0.382,5.995-3.546,3.545
		c-0.682,3.566-4.192,8.214-7.09,5.908c-0.762,5.095,4.956,3.71,4.728,8.272c9.707-1.715,10.605-12.24,18.906-15.362
		c-1.972-3.824-1.729-2.523-1.183-8.271c-2.847,0.484-2.568-2.159-5.907-1.182C281.067,220.249,286.35,217.328,284.891,221.152z
		 M263.62,218.789c0,1.574,0,3.15,0,4.727c4.257-0.077,5.534-3.133,7.091-5.908C266.208,216.369,267.083,222.361,263.62,218.789z
		 M329.794,225.879c4.312,0.768,6.294-0.796,8.271-2.363c0,1.969,0,3.938,0,5.908c5.287,0.561,5.913-3.54,5.908-8.271
		C338.689,223.822,330.615,217.771,329.794,225.879z M348.7,227.061c-1.512-0.064-1.637-1.515-3.545-1.182
		C343.317,228.787,349.169,229.353,348.7,227.061z M278.982,241.241c4.182,3.303,8.504,6.463,14.18,8.271
		C292.09,244.011,282.836,236.344,278.982,241.241z M306.16,249.512c5.668,2.537,15.297,5.934,16.544,9.454
		c0.251,0.709-8.33,4.97,0,3.545c6.394-4.708,0.513-11.484,0-18.906c2.269-4.428,7.14-6.253,5.907-14.181
		c-16.473,0.665-38.9-8.223-46.084,8.271C286.851,241.94,297.045,245.434,306.16,249.512z M295.525,249.512
		c1.414,3.706,5.864,4.377,10.635,4.728C305.571,249.947,298.16,248.033,295.525,249.512z M353.427,228.242
		c-1.511-0.064-1.636-1.515-3.544-1.182C348.045,229.969,353.896,230.534,353.427,228.242z M360.517,230.605
		c-1.397-0.171-2.679-2.104-3.544,0C358.367,230.775,359.651,232.709,360.517,230.605z M330.975,237.695
		c3.466-0.079,4.39-2.702,5.909-4.727C333.031,232.66,331.196,234.371,330.975,237.695z M361.698,243.604
		c-1.118-5.972-4.413-9.77-10.635-10.636C353.495,237.628,359.052,239.161,361.698,243.604z M366.425,236.514
		c-1.39-0.354-2.966-6.257-4.727-2.363C364.044,233.549,364.403,240.67,366.425,236.514z M281.346,247.148
		c0.36-3.117-2.467-3.048-4.727-3.544C275.432,247.547,278.258,247.478,281.346,247.148z M348.7,263.692
		c3.407,2.152,8.167,7.77,12.998,4.727c-2.223-4.074-2.223-3.016,0-7.09c-3.412-2.495-4.962-6.856-9.452-8.271
		c0.46-1.284,1.418-2.837,0-1.182C351.448,254.661,349.877,258.428,348.7,263.692z M319.159,258.966
		c-2.879-2.635-6.251-4.78-11.817-4.727C308.198,258.154,315.561,261.715,319.159,258.966z M326.248,263.692
		c0.788,0,1.577,0,2.363,0c0-0.789,0-1.576,0-2.363c-0.786,0-1.575,0-2.363,0C326.248,262.116,326.248,262.903,326.248,263.692z
		 M329.794,267.237c2.058-0.089,3.675,0.264,4.727,1.182c0.992-1.372,1.559-3.168,1.182-5.908c-1.371-0.992-3.169-1.559-5.908-1.182
		C329.093,265.099,332.011,264.983,329.794,267.237z M336.884,270.783c7.437,1.227,11.079,6.25,16.543,9.452
		c-0.712-8.346-12.092-6.029-12.998-14.18c6.472-0.958,5.757,5.271,11.817,4.728c-2.358-4.732-7.757-6.426-11.817-9.454
		C338.698,263.932,336.838,266.403,336.884,270.783z M321.521,280.235c3.5-3.592,11.595-2.586,12.999-8.271
		C327.474,272.006,323.066,274.692,321.521,280.235z M359.335,279.054c0.823-3.975-2.428-3.874-3.545-5.909
		C356.185,275.901,357.001,278.235,359.335,279.054z M312.069,306.232c0.786,0,1.574,0,2.363,0c0-0.787,0-1.576,0-2.363
		c-0.789,0-1.577,0-2.363,0C312.069,304.656,312.069,305.445,312.069,306.232z"/>
	<path fill-rule="evenodd" clip-rule="evenodd" d="M53.283,56.9c-2.232,0.131-0.821,3.907-3.545,3.545
		c1.441,2.497,4.561,3.316,7.09,4.727c-5.28,4.27-19.361-11.255-14.181-17.725c14.204,3.468,32.132-2.551,37.814,12.998
		c-4.556-4.829-11.927-5.03-14.18-9.454c-3.999,1.364-1.859,2.348-7.09,1.182C61.753,62.7,74.618,57.152,79.279,63.99
		c4.083-3.653,12.045-8.88,17.725-7.09c-1.564,3.162-7.452,2.001-9.453,4.727c3.331,6.215,9.642,0.484,14.18,1.182
		c9.634,1.48,16.042,7.906,18.907,16.543c-8.751,1.143-12.519,1.143-21.27,0c-0.881-4.633-4.672-6.356-8.271-8.272
		c-1.269,4.151,2.228,5.888,3.545,8.272c1.168,2.116,4.454,6.172,4.726,7.09c0.252,0.847-3.396,6.719,0,9.453
		c-1.182,0-2.363,0-3.544,0c4.069,6.757-2.126,14.414-9.454,16.543c-5.255-7.221-6.918-16.09-4.727-25.996
		c-10.724,3.456-14.191,14.168-28.359,14.18c-4.596-14.031,7.94-20.145,10.634-30.723c4.713-0.648,3.559-0.648,8.272,0
		c-6.727,5.878-14.82,10.389-15.362,22.451c5.89-1.199,8.036-6.143,9.453-11.816c7.629-3.443,6.64-11.705,12.998-14.18
		C70.431,63.385,62.55,59.449,53.283,56.9z M49.738,56.9c0.214-2.578-0.968-3.76-3.545-3.545
		C45.978,55.932,47.16,57.114,49.738,56.9z M54.465,55.718c0.787,0,1.575,0,2.363,0c0-0.788,0-1.575,0-2.364
		c-0.789,0-1.576,0-2.363,0C54.465,54.143,54.465,54.93,54.465,55.718z M79.279,84.079c0.837-0.873,2.945-5.784-1.181-4.727
		C78.299,81.12,77.676,83.712,79.279,84.079z M68.645,89.987c3.2-1.527,7.301-2.152,8.272-5.908
		C74.739,86.627,68.593,85.208,68.645,89.987z"/>
	<path fill-rule="evenodd" clip-rule="evenodd" d="M424.326,132.526c3.693-0.361-3.004,3.414,1.183,3.545
		C423.517,140.222,422.026,133.317,424.326,132.526z"/>
	<path fill-rule="evenodd" clip-rule="evenodd" d="M423.146,154.978c-5.104,1.199-3.756,8.849-9.454,9.455
		c2.394-1.602,1.396-6.737,3.546-9.455c0.722-0.911,6.076-0.166,3.545-5.908c4.836-1.291-0.16,7.249,5.908,4.727
		c-4.52,11.333-10.507,26.656-21.27,24.816c0.327-3.96,5.126-8.063,7.09-3.545C417.193,169.509,420.417,162.491,423.146,154.978z"/>
	<path fill-rule="evenodd" clip-rule="evenodd" d="M361.698,195.155c1.004-1.753,2.976-2.541,5.909-2.363
		c-0.8,2.745-3.927,3.163-4.727,5.908C359.188,199.062,365.884,195.286,361.698,195.155z"/>
	<path fill-rule="evenodd" clip-rule="evenodd" d="M358.153,196.337c2.235,0.103-0.285,5.06-3.544,3.546
		C352.771,195.682,358.622,199.168,358.153,196.337z"/>
</g>
</svg>
